<svg width="128" height="128" viewBox="0 0 24 24" fill="none" xmlns="http://www.w3.org/2000/svg">
  <rect x="2" y="4" width="20" height="16" rx="2" ry="2" fill="#f0f0f0" stroke="#333" stroke-width="1.5"/>
  <rect x="2" y="4" width="20" height="3" fill="#333"/>
  <circle cx="5" cy="5.5" r="0.8" fill="#ff5f56"/>
  <circle cx="8" cy="5.5" r="0.8" fill="#ffbd2e"/>
  <circle cx="11" cy="5.5" r="0.8" fill="#27c93f"/>
  
  <!-- Code Icon -->
  <text x="7" y="16" font-family="monospace" font-size="6" fill="#333">&lt;/&gt;</text>
  
  <!-- Gear (simple version) -->
  <g transform="translate(17, 15) scale(0.6)">
    <circle cx="0" cy="0" r="2.5" fill="#666"/>
    <g stroke="#666" stroke-width="1.5">
      <line x1="0" y1="-4" x2="0" y2="-6"/>
      <line x1="0" y1="4" x2="0" y2="6"/>
      <line x1="-4" y1="0" x2="-6" y2="0"/>
      <line x1="4" y1="0" x2="6" y2="0"/>
      <line x1="-2.8" y1="-2.8" x2="-4" y2="-4"/>
      <line x1="2.8" y1="-2.8" x2="4" y2="-4"/>
      <line x1="-2.8" y1="2.8" x2="-4" y2="4"/>
      <line x1="2.8" y1="2.8" x2="4" y2="4"/>
    </g>
  </g>
</svg>
